<svg xmlns="http://www.w3.org/2000/svg" width="75.142" height="59.742" viewBox="0 0 75.142 59.742">
  <g id="Group_452" data-name="Group 452" transform="translate(-268.008 -308.001)">
    <g id="Group_426" data-name="Group 426" transform="translate(268.008 338.915)">
      <path id="Circuit_277" data-name="Circuit 277" d="M310.8,516.028l-.918.918-.459-.918h-2.272l1.04,2.08h3.4l2.08-2.08Zm27.5,0H321.036l-2.1,2.08h18.32v9.658H324a1.04,1.04,0,1,0,0,2.08h13.26v5.381H295.717a1.04,1.04,0,0,0,0,2.08h41.541v5.469h-67.17v-12.93h5.059v-2.08h-5.059v-9.658h33.467l.594-2.08h-35.1a1.041,1.041,0,0,0-1.04,1.04v26.747a1.04,1.04,0,0,0,1.04,1.04h70.29V517.068A1.041,1.041,0,0,0,338.3,516.028Z" transform="translate(-268.008 -516.028)" fill="#067033"/>
    </g>
    <g id="Group_428" data-name="Group 428" transform="translate(298.42 308.001)">
      <g id="Group_427" data-name="Group 427" transform="translate(0)">
        <path id="Circuit_278" data-name="Circuit 278" d="M516.194,315.26l-6.1-6.1a4.159,4.159,0,0,0-5.754,0l-27.326,27.595a1.042,1.042,0,0,0-.256.437l-.492,1.725-.594,2.08-2.98,10.44a1.018,1.018,0,0,0,.978,1.3,1.055,1.055,0,0,0,.279-.038l14.232-4.07a1.015,1.015,0,0,0,.437-.257l7.43-7.371,2.1-2.08,18.045-17.9a4.07,4.07,0,0,0,0-5.755Zm-16.283,1.293,3.742,3.743-19.537,19.537-.459-.918-.942-1.887a1.018,1.018,0,0,0-.909-.562h-1.629Zm-24.759,33.681,1.324-4.635,3.311,3.311Zm11.735-3.353-4.864,1.39-4.908-4.909.676-2.367.594-2.08.119-.416h2.672l.208.416L482.929,342a1.007,1.007,0,0,0,.455.455l3.5,1.754Zm8.384-7.967-2.1,2.08-4.253,4.214v-1.627a1.015,1.015,0,0,0-.562-.909l-2.806-1.4,2.355-2.356,17.183-17.182,3.742,3.742ZM514.76,319.6l-4.483,4.442-8.934-8.934,4.44-4.48a2.08,2.08,0,0,1,2.874,0l6.1,6.1a2.032,2.032,0,0,1,0,2.873Z" transform="translate(-472.655 -308.001)" fill="#067033"/>
      </g>
    </g>
    <path id="Circuit_279" data-name="Circuit 279" d="M340.4,584.341a1.072,1.072,0,0,0-1.517,1.517l4.513,4.513a1.074,1.074,0,0,0,1.517,0l10.78-10.78a1.073,1.073,0,1,0-1.517-1.517L344.157,588.1Z" transform="translate(-60.077 -229.671)" fill="#067033"/>
  </g>
</svg>
