<svg xmlns="http://www.w3.org/2000/svg" width="29.845" height="29.846" viewBox="0 0 29.845 29.846">
  <g id="Group_117" data-name="Group 117" transform="translate(-420.343 -2556.256)">
    <g id="Group_116" data-name="Group 116">
      <path id="Circuit_69" data-name="Circuit 69" d="M450.188,2570.276v1.808c-.05.38-.1.757-.149,1.129a14.394,14.394,0,0,1-1.482,4.753,14.839,14.839,0,0,1-4.621,5.348,14.623,14.623,0,0,1-6.686,2.645c-.356.044-.716.1-1.077.143h-1.816c-.359-.047-.72-.1-1.081-.143a14.26,14.26,0,0,1-4.79-1.49,14.79,14.79,0,0,1-5.354-4.619,14.575,14.575,0,0,1-2.647-6.705c-.046-.353-.092-.705-.142-1.061v-1.808c.05-.366.1-.724.145-1.085a14.327,14.327,0,0,1,1.489-4.8,14.879,14.879,0,0,1,4.622-5.35,14.891,14.891,0,0,1,12.008-2.4,14.911,14.911,0,0,1,11.438,12.549C450.093,2569.552,450.141,2569.91,450.188,2570.276Zm-13.5-2.191c0-.522-.006-1.009,0-1.489,0-.176.005-.352.02-.528a.681.681,0,0,1,.628-.691,3.806,3.806,0,0,1,.666-.054c.395-.009.792-.011,1.188,0,.183.008.252-.044.25-.236q-.015-1.324,0-2.645c0-.171-.056-.22-.221-.218-.752,0-1.507-.011-2.26.01a8.035,8.035,0,0,0-1.326.131,2.563,2.563,0,0,0-1.755,1.159,3.979,3.979,0,0,0-.522,1.933c-.042.778-.031,1.555-.042,2.333,0,.092,0,.185,0,.3h-2.222v3.09h2.222v8.639c0,.307,0,.307.318.307h2.736c.314,0,.314,0,.314-.307q0-4.172.006-8.34v-.306h2.436c.112-1.038.217-2.053.333-3.093Z" fill="#fff"/>
    </g>
  </g>
</svg>
