<svg xmlns="http://www.w3.org/2000/svg" width="60.576" height="50.48" viewBox="0 0 60.576 50.48">
  <g id="Group_451" data-name="Group 451" transform="translate(-1245.876 -313.63)">
    <g id="Group_419" data-name="Group 419" transform="translate(1245.876 313.63)">
      <g id="Group_418" data-name="Group 418" transform="translate(0 0)">
        <path id="Circuit_265" data-name="Circuit 265" d="M1306.452,345.937h-42.4V313.63h-18.173v50.48h60.576ZM1247.9,315.649h14.135v30.88L1247.9,360.663Zm54.519,46.442v-7.067h-2.019v7.067h-2.019v-3.029h-2.019v3.029h-2.019v-7.067h-2.019v7.067H1290.3v-3.029h-2.019v3.029h-2.019v-7.067h-2.019v7.067h-2.019v-3.029H1280.2v3.029h-2.019v-7.067h-2.019v7.067h-2.019v-3.029h-2.019v3.029h-2.019v-7.067h-2.019v7.067h-2.019v-3.029h-2.019v3.029h-2.019v-7.067h-2.019v7.067h-10.688l14.135-14.135h40.976v14.135Z" transform="translate(-1245.876 -313.63)" fill="#067033"/>
        <path id="Circuit_266" data-name="Circuit 266" d="M1293.876,361.63v26.25h6.058V361.63Zm4.038,2.019v22.211H1295.9V363.649Z" transform="translate(-1287.818 -355.572)" fill="#067033"/>
      </g>
    </g>
  </g>
</svg>
