<svg xmlns="http://www.w3.org/2000/svg" width="16.357" height="12.441" viewBox="0 0 16.357 12.441">
  <g id="Group_472" data-name="Group 472" transform="translate(0.5 0.5)">
    <g id="Group_470" data-name="Group 470" transform="translate(0.211)">
      <path id="Circuit_304" data-name="Circuit 304" d="M-756.223,69.683c-2.151,1.822-5.927,5.028-7.035,6.027a.5.5,0,0,1-.742,0c-.551-.5-1.771-1.546-3.123-2.7s-2.835-2.412-3.911-3.324a.173.173,0,0,1-.025-.239,1.144,1.144,0,0,1,.9-.444H-757.1a1.144,1.144,0,0,1,.9.444A.173.173,0,0,1-756.223,69.683Z" transform="translate(771.096 -69)" fill="#067033" stroke="#0a0a0a" stroke-width="1"/>
    </g>
    <g id="Group_471" data-name="Group 471" transform="translate(0 1.909)">
      <path id="Circuit_305" data-name="Circuit 305" d="M-762.643,131.586v8.206a1.154,1.154,0,0,1-1.152,1.152h-13.052A1.154,1.154,0,0,1-778,139.793v-8.206a.174.174,0,0,1,.1-.157.174.174,0,0,1,.073-.016.174.174,0,0,1,.112.041c1.941,1.646,5.352,4.544,6.38,5.47a1.474,1.474,0,0,0,2.026,0c.962-.868,4-3.454,6.381-5.471a.172.172,0,0,1,.184-.025h0A.173.173,0,0,1-762.643,131.586Z" transform="translate(778 -131.413)" fill="#067033" stroke="#0a0a0a" stroke-width="1"/>
    </g>
  </g>
</svg>
