<svg xmlns="http://www.w3.org/2000/svg" width="65.833" height="65.832" viewBox="0 0 65.833 65.832">
  <path id="Circuit_298" data-name="Circuit 298" d="M2127.411,308.645l-.023-.029-10.972-13.166a1.1,1.1,0,0,0-1.542-.143l-9.7,8.016-1.716-4.577a8.717,8.717,0,0,0-4.586-4.909l-8.82-4.009-1.42-2.839a8.774,8.774,0,0,0,3.9-7.295v-7.424a3.287,3.287,0,0,0,1.1-2.451,1.1,1.1,0,0,0-.115-.491l-.989-1.976a7.687,7.687,0,0,0-7.674-7.407h-2.195a7.688,7.688,0,0,0-7.674,7.407L2074,269.33a1.086,1.086,0,0,0-.116.491,3.288,3.288,0,0,0,1.1,2.451V279.7a8.779,8.779,0,0,0,3.9,7.295l-1.419,2.839-8.667,3.939a8.806,8.806,0,0,0-4.695,5.214l-2.233,6.7a1.1,1.1,0,0,0,.55,1.328l1.344.672-1.894,5.681a1.086,1.086,0,0,0-.034.562l1.1,5.486a1.094,1.094,0,0,0,.782.841l2.488.691v3.739a1.1,1.1,0,0,0,1.1,1.1h48.277a1.1,1.1,0,0,0,.776-.322l2.194-2.194a1.1,1.1,0,0,0,.321-.775v-5.8l8.354-6.5A1.1,1.1,0,0,0,2127.411,308.645Zm-30.491-13.282,1.038.472a6.546,6.546,0,0,1,3.441,3.681l1.982,5.286-6.461,5.337Zm-9.875-32.764a5.5,5.5,0,0,1,3.182,3.929h-3.182Zm-6.583,0v2.832h2.194v-3.291h2.195v4.389h-7.569A5.5,5.5,0,0,1,2080.462,262.6Zm-4.367,7.436.657-1.313h14l.657,1.313a1.1,1.1,0,0,1-1.077.882H2077.17A1.1,1.1,0,0,1,2076.1,270.036Zm1.075,9.659v-6.583h13.167V279.7a6.583,6.583,0,0,1-13.167,0Zm10.691,10.669-4.108,3.286-4.108-3.286,1.195-2.391a8.747,8.747,0,0,0,5.826,0Zm-9.753,1.58,4.959,3.968a1.1,1.1,0,0,0,1.372,0l4.959-3.968,1.813.824-1.775,8.871H2078.07l-1.773-8.871Zm-5.327,2.422,1.463-.665,1.85,9.251a1.1,1.1,0,0,0,1.075.882h13.167a1.1,1.1,0,0,0,1.077-.882l1.85-9.251,1.462.665v17.585l-4.955,4.093-4.911,1.965-12.077-5.033Zm-6.6,5.31a6.606,6.606,0,0,1,3.521-3.911l.886-.4v13.277l-6.338-3.17Zm2.212,23.906v-2.031l7.312,2.031Zm24.138,0H2083.9l-15.51-4.309v-.08h-.29l-3.156-.878-.908-4.538,1.7-5.106,4.845,2.422v2.614a1.1,1.1,0,0,0,.675,1.012l13.166,5.486a1.094,1.094,0,0,0,.83.005l4.951-1.979,2.322,1.548Zm24.138-1.552-1.551,1.552h-5.125l6.677-5.194Zm-21.944-1.828h0v-1.008a1.094,1.094,0,0,0-.488-.913l-2.064-1.376,6.373-5.264,2.181-1.8,14.7-12.145,4.469,5.362-7.178,5.385,1.317,1.755,7.269-5.452,1.148,1.377-14.142,11.112,1.355,1.725,14.192-11.15,1.117,1.34-18.556,14.434h-11.694v-.57m7.066-3.713" transform="translate(-2061.81 -259.946)" fill="#067033"/>
</svg>
