<svg xmlns="http://www.w3.org/2000/svg" width="24.635" height="24.665" viewBox="0 0 24.635 24.665">
  <g id="Group_42" data-name="Group 42" transform="translate(-1324.16 -59.82)">
    <g id="Group_41" data-name="Group 41">
      <path id="Circuit_37" data-name="Circuit 37" d="M1339.1,77.375a9.61,9.61,0,0,1-12.283-14.646,9.588,9.588,0,0,1,12.1-1.356,9.479,9.479,0,0,1,4.149,6.046,9.626,9.626,0,0,1-1.347,7.264c.795.782,1.578,1.544,2.352,2.314,1.342,1.336,2.685,2.671,4.015,4.019a1.961,1.961,0,1,1-2.768,2.76q-2.9-2.909-5.78-5.836A5.932,5.932,0,0,1,1339.1,77.375ZM1326.88,69.42a6.822,6.822,0,1,0,6.827-6.837A6.846,6.846,0,0,0,1326.88,69.42Z" fill="#2b2523"/>
    </g>
  </g>
</svg>
