<svg xmlns="http://www.w3.org/2000/svg" width="13.287" height="14.256" viewBox="0 0 13.287 14.256">
  <path id="Circuit_303" data-name="Circuit 303" d="M12.671,9.923c-.861-.737-1.735-1.183-2.586-.447l-.508.445c-.372.323-1.063,1.83-3.734-1.243S4.761,5.13,5.133,4.81l.511-.445c.846-.737.527-1.665-.083-2.62l-.368-.579C4.579.212,3.911-.413,3.063.323L2.6.723A4.3,4.3,0,0,0,.927,3.571C.621,5.6,1.586,7.913,3.8,10.456s4.371,3.822,6.42,3.8a4.315,4.315,0,0,0,3.052-1.264l.46-.4c.846-.736.32-1.484-.541-2.223Z" transform="translate(-0.872 0)" fill="#067033"/>
</svg>
