<svg xmlns="http://www.w3.org/2000/svg" width="29.844" height="29.842" viewBox="0 0 29.844 29.842">
  <path id="Circuit_70" data-name="Circuit 70" d="M525.824,2556.258a14.921,14.921,0,1,0,14.933,14.9A14.9,14.9,0,0,0,525.824,2556.258Zm7.43,10.588a4.7,4.7,0,0,1-.972,1.118c-.15.119-.3.241-.453.358a8.463,8.463,0,0,1-.132,1.848,8.048,8.048,0,0,1-5.641,6.363,8.535,8.535,0,0,1-4.073.168,10.173,10.173,0,0,1-1.693-.55,7.146,7.146,0,0,1-.814-.42c-.084-.053-.17-.1-.252-.154a4.553,4.553,0,0,0,.92.03c.28-.042.558-.03.821-.086a5.92,5.92,0,0,0,1.727-.626,3.19,3.19,0,0,0,.78-.511,2.478,2.478,0,0,1-.858-.152,2.892,2.892,0,0,1-1.825-1.843c.285.03,1.1.1,1.284-.054a2.107,2.107,0,0,1-.941-.38,2.765,2.765,0,0,1-1.354-2.462c.1.045.2.092.3.138a3.1,3.1,0,0,0,.6.167.848.848,0,0,0,.393.037h-.013c-.146-.171-.38-.283-.528-.464a2.936,2.936,0,0,1-.644-2.609,3.3,3.3,0,0,1,.308-.752.035.035,0,0,0,.014.007,1.683,1.683,0,0,0,.259.3,5.371,5.371,0,0,0,.858.82,8.484,8.484,0,0,0,3.519,1.7,5.591,5.591,0,0,0,1.292.166,2.643,2.643,0,0,1,.014-1.351,2.842,2.842,0,0,1,1.628-1.931,3.549,3.549,0,0,1,.64-.2c.116-.017.231-.031.351-.045a2.961,2.961,0,0,1,2.274.9,4.665,4.665,0,0,0,1.475-.5l.358-.2a2.886,2.886,0,0,1-.933,1.352,1.372,1.372,0,0,1-.317.222v.01a5.446,5.446,0,0,0,1.629-.443Z" transform="translate(-510.913 -2556.258)" fill="#fff" fill-rule="evenodd"/>
</svg>
