<svg id="Group_175" data-name="Group 175" xmlns="http://www.w3.org/2000/svg" width="37.621" height="25.914" viewBox="0 0 37.621 25.914">
  <path id="Circuit_103" data-name="Circuit 103" d="M1114.513,479.554h.739c1.556,0,3.113.006,4.669,0a1.844,1.844,0,0,1,1.482.638q2.877,3.248,5.773,6.478a2.331,2.331,0,0,1,.641,1.677c-.025,1.815,0,3.631-.01,5.446,0,1.286-.512,1.8-1.78,1.915a.789.789,0,0,0-.551.382,3.311,3.311,0,0,1-3.2,2.187,3.176,3.176,0,0,1-3.1-2.212c-.137-.343-.346-.375-.644-.375q-7.661.006-15.324,0a.556.556,0,0,0-.608.418,3.253,3.253,0,0,1-3.126,2.181,3.41,3.41,0,0,1-3.175-2.23.752.752,0,0,0-.565-.346c-1.2-.033-2.393-.013-3.591-.018a1.76,1.76,0,0,1-1.934-1.817c-.01-.139-.01-.279-.01-.418,0-5.8-.017-11.61.022-17.414a5.54,5.54,0,0,1,.485-2.181,2.509,2.509,0,0,1,2.464-1.489h18.077a2.953,2.953,0,0,1,3.222,2.956c.078,1.132.034,2.273.044,3.409C1114.515,478.972,1114.513,479.209,1114.513,479.554Zm-12.162-5.988q-4.549,0-9.1,0a1.527,1.527,0,0,0-1.669,1.166,4.106,4.106,0,0,0-.179,1.232c-.018,1.735-.008,3.471-.008,5.206q0,6.164,0,12.328c0,.83.149.987.9.99,1.1,0,2.2-.017,3.292.009a.611.611,0,0,0,.709-.521,3.312,3.312,0,0,1,6.367.037c.109.34.243.484.614.482q4.758-.019,9.518,0c.385,0,.527-.118.519-.514-.021-1.057-.039-2.115.006-3.172.024-.576-.153-.736-.731-.734-5.127.022-10.255.014-15.384.01-.45,0-.981.079-1.061-.578-.053-.436.281-.615,1.071-.616h15.324c.766,0,.766,0,.767-.791q0-6.014,0-12.029a5.758,5.758,0,0,0-.041-.835,1.748,1.748,0,0,0-1.942-1.672Q1106.841,473.563,1102.351,473.566Zm19.011,8.443c-.572-.789-1.016-1.364-2.03-1.286-1.408.109-2.831.043-4.247.019-.443-.008-.582.125-.58.575q.022,6.311,0,12.623c0,.47.176.568.6.559,1.1-.023,2.194-.021,3.291,0,.408.007.616-.072.742-.534a3.3,3.3,0,0,1,3.176-2.366,3.373,3.373,0,0,1,3.19,2.362c.1.353.188.582.616.534.478-.055.5-.374.5-.733,0-1.656-.019-3.311.01-4.965.009-.488-.16-.6-.617-.6-2.413.019-4.826.016-7.24,0a1.481,1.481,0,0,1-1.642-1.626q-.02-1.466,0-2.932a1.522,1.522,0,0,1,1.653-1.633C1119.591,482,1120.406,482.008,1121.362,482.008Zm4.3,4.957c0-.08.017-.133,0-.154-1-1.136-2-2.274-3.013-3.393a.79.79,0,0,0-.525-.2c-1.075-.018-2.151,0-3.226-.014-.4,0-.587.152-.583.559.009.9.011,1.792,0,2.688-.005.406.162.566.571.564,2.171-.01,4.341,0,6.511-.006A1.794,1.794,0,0,0,1125.663,486.966Zm-1.216,7.955a2.143,2.143,0,0,0-2.136-2.123,2.18,2.18,0,0,0-2.155,2.178,2.141,2.141,0,0,0,2.149,2.113A2.12,2.12,0,0,0,1124.447,494.921Zm-24.977,2.167a2.127,2.127,0,0,0,2.153-2.159,2.145,2.145,0,1,0-4.29.044A2.134,2.134,0,0,0,1099.47,497.088Z" transform="translate(-1090.195 -472.369)"/>
</svg>
