<svg version="1.1" id="Layer_1" xmlns="http://www.w3.org/2000/svg" xmlns:xlink="http://www.w3.org/1999/xlink" x="0px" y="0px"
	 viewBox="0 0 173.2 31.8" style="enable-background:new 0 0 173.2 31.8;" xml:space="preserve" width="234.333" height="43.057">
<style type="text/css">
	.st0{fill:#FFFFFF;}
	.st1{fill:#027032;}
	.st2{fill:#008D39;}
</style>
<g id="Layer_2_00000103260264918970706530000000278214449205336255_">
	<g id="Layer_1-2">
		<path class="st0" d="M13.7,22.4c-1.5,1.6-3.7,2.5-5.9,2.4c-2.1,0.1-4.2-0.8-5.7-2.3c-0.9-0.9-1.5-2-1.7-3.2
			C0.1,17.6,0,15.8,0,14.1c0-1.8,0.1-3.5,0.4-5.2c0.2-1.2,0.8-2.3,1.7-3.2c1.5-1.5,3.5-2.4,5.7-2.3c4-0.2,7.5,2.7,7.9,6.7h-4.1
			C11.3,8.2,9.6,6.9,7.7,7c-1,0-2,0.4-2.6,1.1c-0.8,1-1,1.7-1,5.9s0.2,5,1,5.9c0.7,0.7,1.6,1.2,2.6,1.1c1.1,0.1,2.2-0.4,2.9-1.2
			c0.7-0.8,1-1.8,0.9-2.8v-0.8H7.7v-3.4h7.9V16C15.7,19,15.1,20.8,13.7,22.4z"/>
		<path class="st0" d="M22.2,18.1c-0.1,1.8,1.2,3.3,2.9,3.4c0.1,0,0.3,0,0.4,0c1.3,0.1,2.6-0.5,3.5-1.5l2.3,2.3
			c-1.5,1.7-3.6,2.5-5.9,2.4c-3.6,0-7.1-1.6-7.1-7.9c0-5,2.7-7.9,6.7-7.9c4.3,0,6.7,3.1,6.7,7.4v1.7H22.2z M27.7,13.8
			c-0.4-1-1.5-1.6-2.6-1.6c-1.1-0.1-2.1,0.6-2.6,1.6c-0.2,0.5-0.3,1.1-0.4,1.6h5.9C28.1,14.9,28,14.3,27.7,13.8z"/>
		<path class="st0" d="M41.8,24.6h-3L33.1,9.2h4l3.1,9.5l3.1-9.5h4L41.8,24.6z"/>
		<path class="st0" d="M52.4,18.1c-0.1,1.8,1.2,3.3,2.9,3.4c0.1,0,0.3,0,0.4,0c1.3,0.1,2.6-0.5,3.5-1.5l2.3,2.3
			c-1.5,1.7-3.6,2.5-5.8,2.4c-3.6,0-7.1-1.6-7.1-7.9c0-5,2.7-7.9,6.7-7.9c4.3,0,6.7,3.1,6.7,7.4v1.7H52.4z M57.9,13.8
			c-0.7-1.4-2.4-2-3.8-1.3c-0.6,0.3-1,0.7-1.3,1.3c-0.2,0.5-0.3,1.1-0.3,1.6h5.8C58.2,14.9,58.1,14.3,57.9,13.8z"/>
		<path class="st0" d="M74.5,24.6v-9.3c0.2-1.4-0.9-2.7-2.3-2.8s-2.7,0.9-2.8,2.3c0,0.2,0,0.4,0,0.6v9.3h-3.8V9.2h3.8v1.4
			c1-1,2.4-1.6,3.8-1.6c1.3-0.1,2.7,0.4,3.6,1.4c1.1,1.2,1.7,2.8,1.6,4.4v9.8L74.5,24.6z"/>
		<path class="st1" d="M173.2,11V0h-28.1v16.6c0,0.4,0.2,10.5,12.9,15c0.4,0.1,0.8,0.2,1.2,0.2c0.4,0,0.7-0.1,1.1-0.2
			c12.6-4.4,12.9-14.6,12.9-15v-3.4H162l-5.2,5.3h10.8c-0.8,2.5-2.9,5.8-8.3,7.9c-8.4-3.3-8.7-9.6-8.7-9.8V5.3h17.4V11H173.2z"/>
		<path class="st2" d="M145.2,0v16.6c0.2,3,1.3,5.9,3.2,8.3l3.8-3.8c-1-1.3-1.5-2.9-1.7-4.5V5.3h17.4l5.3-5.3H145.2z"/>
		<path class="st0" d="M111.2,23.1c-2.3,2.2-6,2.2-8.3,0c-1.5-1.5-1.8-3.5-1.8-5.8s0.3-4.3,1.8-5.8c2.3-2.2,6-2.2,8.3,0
			c1.5,1.5,1.8,3.5,1.8,5.8S112.7,21.6,111.2,23.1z M109.7,12.8c-0.7-0.7-1.7-1.1-2.7-1.1c-1,0-1.9,0.4-2.6,1.1
			c-1.1,1.1-1.2,2.9-1.2,4.5s0.1,3.4,1.2,4.5c0.7,0.7,1.6,1.1,2.6,1.1c1,0,2-0.4,2.7-1.1c1.1-1.1,1.2-2.9,1.2-4.5
			S110.8,13.9,109.7,12.8z"/>
		<path class="st0" d="M125.6,24.6v-1.6c-1,1.2-2.5,1.8-4.1,1.8c-1.4,0.1-2.7-0.4-3.8-1.4c-1-1.1-1.6-2.6-1.5-4.1V10h2.1v9
			c0,2.6,1.4,3.9,3.6,3.9s3.6-1.3,3.6-3.9v-9h2.1v14.6H125.6z"/>
		<path class="st0" d="M135.2,24.6c-2.5,0-3.7-1.7-3.7-3.9V5.6h2.1v4.6h3.1v1.6h-3.1v8.9c0,1.3,0.6,2.1,2,2.1h1.1v1.8H135.2z"/>
		<polygon class="st0" points="95.1,3.5 95.1,12.9 88,12.9 88,15 95.1,15 95.1,24.6 97.4,24.6 97.4,3.5 		"/>
		<rect x="82.9" y="3.5" class="st0" width="2.2" height="21"/>
	</g>
</g>
</svg>
