<svg xmlns="http://www.w3.org/2000/svg" width="19.94" height="19.588" viewBox="0 0 19.94 19.588">
  <g id="Group_57" data-name="Group 57" transform="translate(-385.986 -161.548)">
    <g id="Group_56" data-name="Group 56">
      <path id="Circuit_42" data-name="Circuit 42" d="M401.652,179.7v-.258q0-5.13,0-10.258a.486.486,0,0,0-.105-.312q-2.752-2.772-5.518-5.528c-.015-.015-.034-.027-.072-.058-.06.057-.123.115-.184.176q-4.248,4.248-8.5,8.5a.733.733,0,0,1-.8.24.706.706,0,0,1-.325-1.123c.047-.057.1-.107.154-.16l9.032-9.031a.744.744,0,0,1,1.237,0q4.531,4.531,9.063,9.062a.751.751,0,0,1,.272.733.683.683,0,0,1-.487.529.675.675,0,0,1-.715-.182c-.479-.474-.955-.953-1.433-1.429-.051-.051-.105-.1-.2-.186v.273q0,4.808,0,9.614c0,.578-.265.845-.84.845h-12.57a.728.728,0,0,1-.831-.83q0-3.828,0-7.654a.713.713,0,1,1,1.423-.021c0,.816,0,1.63,0,2.447V179.7Z" fill="#fff" fill-rule="evenodd"/>
    </g>
  </g>
</svg>
