<svg version="1.1" id="Layer_1" xmlns="http://www.w3.org/2000/svg" xmlns:xlink="http://www.w3.org/1999/xlink" x="0px" y="0px"
	 viewBox="0 0 380.4 77.4" style="enable-background:new 0 0 380.4 77.4;" xml:space="preserve" width="390">
<style type="text/css">
	.st0{enable-background:new    ;}
	.st1{fill:#FFFFFF;}
</style>
<g id="Layer_2_00000087407329483353838380000005627319521308116902_">
	<g id="Layer_1-2">
		<g class="st0">
			<path class="st1" d="M18.4,52.5c0.1,1.2-0.4,2.5-1.7,3.8c-1.2,1.3-2.8,2.4-4.6,3.3c-1.9,0.9-3.6,1.4-5.4,1.6
				C6,61.2,5.1,60.9,4,60.1c-1.1-0.8-1.7-1.5-1.7-2.1c0-0.3,0-0.6,0.1-0.8c0.1-0.2,0.3-0.3,0.5-0.3s0.6,0.1,1.4,0.4s1.2,0.4,1.6,0.3
				c0.3,0,0.7-0.1,1-0.2c-0.5-0.1-1-0.4-1.6-0.9c-0.5-0.4-0.8-0.9-0.9-1.3c0-0.2,0.2-1.7,0.6-4.4c0.4-2.7,0.5-5,0.4-6.9
				c-0.4-0.3-0.7-0.7-1.1-1.1c-0.3-0.5-0.5-0.8-0.5-1c-0.1-0.6,0.3-1,1.2-1.5c0.8-0.4,1.9-0.7,3.2-0.8c2.8-0.3,5-0.1,6.7,0.5
				c1.7,0.6,2.7,1.7,2.8,3.2c0.1,1-0.2,2.1-1,3.2c-0.7,1.1-1.8,2.2-3.1,3.2l0.3,0.1c1.2,0.2,2.2,0.6,3.1,1.1
				C17.9,51.1,18.3,51.8,18.4,52.5z M14.7,52.8c0-0.4-0.6-0.7-1.8-0.9c-1.2-0.2-2.1-0.2-2.9-0.2c-0.4,0-0.9-0.2-1.4-0.8
				c-0.5,3.7-0.9,5.8-1,6.1c1.6-0.5,3.2-1.2,4.8-2.1C14,54.1,14.7,53.4,14.7,52.8z M12.2,42.7c-0.6,0.1-2,0.4-4.2,1.1
				c0.8,0.7,1.2,1.3,1.2,1.9c0,0.5,0,1.5-0.2,2.9c0.3-0.3,0.8-0.7,1.6-1.2c0.8-0.5,1.2-0.9,1.4-1c0.2-0.2,0.5-0.4,0.8-0.7
				c0.6-0.6,0.9-1.2,0.8-1.9C13.5,43,13.1,42.7,12.2,42.7z"/>
			<path class="st1" d="M32.2,51.4c-1.2,0.9-2.5,1.4-3.9,1.5c-1.4,0.1-2.5,0.1-3.4,0c-0.1,0.5-0.2,1.1-0.1,1.6
				c0.1,0.5,0.2,0.9,0.4,1.1c0.2,0.2,0.7,0.3,1.4,0.2c1.5-0.1,2.7-0.4,3.8-0.8c1-0.4,1.6-0.6,1.6-0.6c0.8-0.1,1.2,0.1,1.3,0.7
				c0.1,0.8-0.5,1.6-1.7,2.4c-1.2,0.8-2.6,1.3-4.3,1.5c-1.7,0.2-3-0.2-4.1-1.2c-1.1-0.9-1.7-2.1-1.9-3.6s0.1-3,0.8-4.6
				c0.7-1.6,1.6-3,2.8-4.2c1.2-1.2,2.4-1.8,3.6-1.9c1.2-0.1,2.5,0.4,3.6,1.5c1.2,1.1,1.8,2.3,1.9,3.5C34,49.6,33.4,50.5,32.2,51.4z
				 M29.7,47.7c-0.4-0.3-0.9-0.5-1.2-0.4c-0.4,0-0.8,0.3-1.3,0.9c-0.5,0.6-1,1.3-1.4,2.2c0.2,0,0.4,0,0.8,0c2.7-0.3,4-0.9,3.9-1.8
				C30.4,48.3,30.2,48,29.7,47.7z"/>
			<path class="st1" d="M39.8,35.5c0.8,0.8,1.3,1.6,1.4,2.4c0.1,0.8,0.1,2.2,0,4.2c0,2-0.1,3.7-0.3,4.9c-1,7.3-1.8,10.9-2.4,11
				c-0.4,0-1-0.3-1.7-0.9c-0.7-0.6-1.1-1.2-1.1-1.6c0,0,0.2-1.1,0.5-3.1c0.3-2.1,0.6-4.7,0.9-7.9c0.2-3.2,0.2-6.2-0.1-9.1
				c-0.1-0.6,0.2-0.9,0.8-0.9C38.4,34.3,39,34.7,39.8,35.5z"/>
			<path class="st1" d="M54.4,49.3c-1.2,0.9-2.5,1.4-3.9,1.5c-1.4,0.1-2.5,0.1-3.4,0c-0.1,0.5-0.2,1.1-0.1,1.6
				c0.1,0.5,0.2,0.9,0.4,1.1c0.2,0.2,0.7,0.3,1.4,0.2c1.5-0.1,2.7-0.4,3.8-0.8c1-0.4,1.6-0.6,1.6-0.6c0.8-0.1,1.2,0.1,1.3,0.7
				c0.1,0.8-0.5,1.6-1.7,2.4c-1.2,0.8-2.6,1.3-4.3,1.5c-1.7,0.2-3-0.2-4.1-1.2c-1.1-0.9-1.7-2.1-1.9-3.6s0.1-3,0.8-4.6
				c0.7-1.6,1.6-3,2.8-4.2c1.2-1.2,2.4-1.8,3.6-1.9c1.2-0.1,2.5,0.4,3.6,1.5c1.2,1.1,1.8,2.3,1.9,3.5C56.2,47.5,55.6,48.4,54.4,49.3
				z M51.9,45.6c-0.4-0.3-0.9-0.5-1.2-0.4c-0.4,0-0.8,0.3-1.3,0.9c-0.5,0.6-1,1.3-1.4,2.2c0.2,0,0.4,0,0.8,0c2.7-0.3,4-0.9,3.9-1.8
				C52.6,46.2,52.4,45.9,51.9,45.6z"/>
			<path class="st1" d="M68.8,47.9c-1.2,0.9-2.5,1.4-3.9,1.5c-1.4,0.1-2.5,0.1-3.4,0c-0.1,0.5-0.2,1.1-0.1,1.6
				c0.1,0.5,0.2,0.9,0.4,1.1c0.2,0.2,0.7,0.3,1.4,0.2c1.5-0.1,2.7-0.4,3.8-0.8c1-0.4,1.6-0.6,1.6-0.6c0.8-0.1,1.2,0.1,1.3,0.7
				c0.1,0.8-0.5,1.6-1.7,2.4s-2.6,1.3-4.3,1.5s-3-0.2-4.1-1.2c-1.1-0.9-1.7-2.1-1.9-3.6s0.1-3,0.8-4.6c0.7-1.6,1.6-3,2.8-4.2
				c1.2-1.2,2.4-1.8,3.6-1.9c1.2-0.1,2.5,0.4,3.6,1.5c1.2,1.1,1.8,2.3,1.9,3.5C70.6,46.1,70,47.1,68.8,47.9z M66.3,44.2
				c-0.4-0.3-0.9-0.5-1.2-0.4c-0.4,0-0.8,0.3-1.3,0.9s-1,1.3-1.4,2.2c0.2,0,0.4,0,0.8,0c2.7-0.3,4-0.9,3.9-1.8
				C67,44.8,66.8,44.6,66.3,44.2z"/>
			<path class="st1" d="M82.4,36.1c-0.1-0.4-0.3-0.8-0.5-1.2c-0.2-0.4-0.4-0.5-0.7-0.5c-0.2,0-0.5,0.2-0.7,0.6
				c-0.2,0.4-0.4,1-0.6,1.8c-0.3,1.3-0.5,2.8-0.7,4.5c1.5-0.2,2.6-0.4,3.4-0.4c0.8-0.1,1.3,0,1.7,0.2c0.4,0.2,0.6,0.4,0.6,0.8
				c0.1,0.6-0.4,1.1-1.5,1.6c-1.1,0.4-2.6,0.9-4.7,1.4c-0.6,4.2-1,6.8-1.3,7.9c-0.3,1.1-0.7,1.6-1.2,1.7c-0.4,0-0.8-0.2-1.4-0.8
				c-0.6-0.6-0.9-1-0.9-1.3c0-0.3,0-0.7,0.1-1.1c0.4-1.8,0.8-3.5,0.9-5.1c-0.6,0.2-1.1,0.3-1.6,0.4c-0.5,0-0.9-0.1-1.4-0.5
				c-0.5-0.4-0.8-0.9-0.8-1.5c-0.1-0.7,1.3-1.5,4.1-2.2c0.2-3.8,0.7-6.6,1.6-8.4c0.9-1.8,2.3-2.8,4.2-3c0.9-0.1,1.8,0.3,2.7,1.1
				c0.9,0.8,1.3,1.9,1.5,3.1c0.1,0.8,0,1.5-0.2,1.9c-0.2,0.5-0.5,0.7-0.9,0.8c-0.4,0-0.8-0.1-1-0.5S82.5,36.5,82.4,36.1z"/>
			<path class="st1" d="M97.8,40.3c1.3-2.3,2.7-3.6,4.2-3.7c1.5-0.1,2.8,0.3,3.9,1.2c1.1,1,1.8,2.2,1.9,3.7c0.1,1.5-0.1,3-0.6,4.6
				c-0.6,1.6-1.4,3-2.6,4.1c-1.2,1.1-2.5,1.8-4,1.9c-1.1,0.1-2.1-0.3-2.9-1.2c-0.9-0.9-1.4-2-1.5-3.4C95.9,45,96.5,42.6,97.8,40.3z
				 M103.2,45.9c0.6-1.5,0.9-2.9,0.8-4.2c-0.1-1.3-0.4-2.1-0.8-2.5c-0.8,0.6-1.5,1.7-2.2,3.3c-0.7,1.7-1,3.1-0.9,4.3
				c0.1,1.2,0.3,1.9,0.6,2.2C101.7,48.5,102.5,47.4,103.2,45.9z"/>
			<path class="st1" d="M119.6,34.9c1-0.1,2,0.3,2.8,1.1c0.9,0.8,1.3,1.8,1.4,2.8c0.2,1.7,0.1,3.4-0.3,5.3c-0.4,1.9-0.8,3.3-1.4,4.4
				c-0.5,1-1.1,1.6-1.8,1.7c-0.7,0.1-1-0.4-1.1-1.3c-0.1-0.7,0.1-2.2,0.6-4.4c0.3-1.8,0.4-3.1,0.4-3.9c-0.1-0.8-0.2-1.1-0.4-1.1
				c-0.3,0-0.5,0.2-0.7,0.5c-0.2,0.3-0.4,0.5-0.5,0.7c-0.1,0.2-0.3,0.5-0.5,0.8c-0.2,0.3-0.3,0.6-0.5,0.9c-0.1,0.3-0.3,0.6-0.5,1
				c-0.2,0.4-0.3,0.7-0.5,1c-0.1,0.3-0.3,0.6-0.4,1c-1.5,3.6-2.8,5.4-3.8,5.5c-0.4,0-1-0.3-1.7-0.9c-0.7-0.7-1.1-1.2-1.1-1.5
				c0-0.2,0.1-0.7,0.3-1.4c0.2-0.7,0.4-1.3,0.5-1.7c0.1-0.4,0.2-0.8,0.2-1.3c0-0.4,0.1-0.9,0.1-1.4c0-0.5,0-0.9,0-1.2
				c0-0.3,0-0.7,0-1.3c-0.1-2.6,0-4,0.1-4.3c0.1-0.3,0.2-0.4,0.4-0.5c0.7-0.1,1.5,0.2,2.2,0.7c0.7,0.6,1.1,1.1,1.2,1.6
				c0.1,1.2,0,3-0.4,5.3c1.1-2.4,2.1-4.3,3-5.8C118.1,35.8,118.9,35,119.6,34.9z"/>
			<path class="st1" d="M130.6,45.5l6.4-0.8c0.4,0,0.8,0,1.1,0.2c0.3,0.2,0.5,0.4,0.6,0.8c0.1,0.9-0.7,1.7-2.4,2.4
				c-1.7,0.7-3.9,1.1-6.4,1.4c-0.9,0.1-1.9-0.2-2.8-1c-0.9-0.8-1.4-1.4-1.5-2c-0.1-0.5,0.4-1.3,1.3-2.2c0.9-0.9,1.9-1.8,3.1-2.6
				c1.1-0.8,2.2-1.6,3.1-2.3c0.9-0.7,1.4-1.2,1.4-1.4c0-0.2-0.6-0.3-1.6-0.2c-1.1,0.1-1.9,0.2-2.6,0.4c-0.7,0.2-1.2,0.3-1.6,0.3
				s-0.9-0.3-1.5-0.9c-0.6-0.6-0.9-1.1-1-1.5c-0.1-0.6,0.4-1,1.4-1.4c1-0.4,2.1-0.6,3.3-0.7c1.2-0.1,2.6-0.1,4,0.1
				c0.7,0.1,1.3,0.6,2,1.3c0.7,0.8,1,1.4,1.1,1.8c0.1,0.8-0.3,1.7-1,2.7c-0.8,1-1.6,1.8-2.6,2.6c-1,0.7-1.9,1.4-2.7,1.9
				s-1.2,0.9-1.2,1C130.4,45.4,130.5,45.5,130.6,45.5z"/>
			<path class="st1" d="M151.3,40.1c-1.2,0.9-2.5,1.4-3.9,1.5c-1.4,0.1-2.5,0.1-3.4,0c-0.1,0.5-0.2,1.1-0.1,1.6
				c0.1,0.5,0.2,0.9,0.4,1.1c0.2,0.2,0.7,0.3,1.4,0.2c1.5-0.1,2.7-0.4,3.8-0.8c1-0.4,1.6-0.6,1.6-0.6c0.8-0.1,1.2,0.1,1.3,0.7
				c0.1,0.8-0.5,1.6-1.7,2.4c-1.2,0.8-2.6,1.3-4.3,1.5c-1.7,0.2-3-0.2-4.1-1.2c-1.1-0.9-1.7-2.1-1.9-3.6s0.1-3,0.8-4.6
				c0.7-1.6,1.6-3,2.8-4.2c1.2-1.2,2.4-1.8,3.6-1.9c1.2-0.1,2.5,0.4,3.6,1.5c1.2,1.1,1.8,2.3,1.9,3.5
				C153.1,38.3,152.6,39.2,151.3,40.1z M148.9,36.4c-0.4-0.3-0.9-0.5-1.2-0.4c-0.4,0-0.8,0.3-1.3,0.9c-0.5,0.6-1,1.3-1.4,2.2
				c0.2,0,0.4,0,0.8,0c2.7-0.3,4-0.9,3.9-1.8C149.5,37,149.3,36.7,148.9,36.4z"/>
			<path class="st1" d="M184.9,28.7c0.8-0.1,1.5,0.4,2.1,1.4c0.6,1,1,1.9,1,2.7c0.1,0.8,0,2.1-0.1,3.8c-0.2,1.7-0.5,3.3-1.1,5
				c-0.6,1.6-1.2,2.5-2,2.5c-0.6,0.1-1-0.3-1.1-1.2c-0.1-0.9,0-2.4,0.4-4.4c0.3-2.1,0.5-3.4,0.4-4c-0.1-0.6-0.2-0.9-0.4-0.9
				c-0.4,0-0.9,0.5-1.3,1.5c-0.5,1-1.1,2.2-1.7,3.8c-0.7,1.6-1.1,2.6-1.2,3.1c-0.2,0.5-0.3,0.8-0.4,1.1c-0.1,0.3-0.2,0.5-0.4,0.8
				c-0.5,1.1-1.4,1.2-2.5,0.2c-0.6-0.5-0.9-0.9-0.9-1.4c0-0.1,0.1-0.8,0.3-2.3s0.2-3.1,0-4.9c-0.1-0.8-0.2-1.1-0.4-1.1
				c-0.2,0-0.5,0.3-0.8,0.8s-0.7,1.4-1.2,2.7c-0.5,1.3-1,2.4-1.4,3.2c-1.4,3-2.5,4.5-3.4,4.6c-0.4,0-1-0.3-1.7-0.9
				c-0.7-0.7-1.1-1.2-1.1-1.6c0-0.4,0.1-1.3,0.4-2.8c0.3-1.5,0.4-3.1,0.4-4.8c0-1.7,0-3,0-3.9c0-0.9,0.2-1.4,0.6-1.5
				c0.7-0.1,1.5,0.2,2.3,0.7c0.8,0.6,1.2,1.1,1.2,1.6c0.1,1.2-0.1,3.2-0.7,6.2c1.1-3.4,2-5.7,2.8-7c0.9-1.3,1.8-2,2.7-2.1
				c0.5,0,1.2,0.4,2,1.2c0.8,0.9,1.3,1.7,1.4,2.5c0.1,0.8,0.1,1.5,0.2,2.1c0.5-1.6,1.3-3.1,2.4-4.5
				C182.7,29.6,183.8,28.8,184.9,28.7z"/>
			<path class="st1" d="M191.7,31.4c1.3-2.3,2.7-3.6,4.2-3.7c1.5-0.1,2.8,0.3,3.9,1.2c1.1,1,1.8,2.2,1.9,3.7c0.1,1.5-0.1,3-0.6,4.6
				c-0.6,1.6-1.4,3-2.6,4.1c-1.2,1.1-2.5,1.8-4,1.9c-1.1,0.1-2.1-0.3-2.9-1.2c-0.9-0.9-1.4-2-1.5-3.4
				C189.8,36.1,190.3,33.7,191.7,31.4z M197,37c0.7-1.5,0.9-2.9,0.8-4.2c-0.1-1.3-0.4-2.1-0.8-2.5c-0.8,0.6-1.5,1.7-2.2,3.3
				c-0.7,1.7-1,3.1-0.9,4.3c0.1,1.2,0.3,1.9,0.6,2.2C195.5,39.5,196.4,38.5,197,37z"/>
			<path class="st1" d="M205.1,30.1c1.3-2.3,2.7-3.6,4.2-3.7c1.5-0.1,2.8,0.3,3.9,1.2c1.1,1,1.8,2.2,1.9,3.7s-0.1,3-0.6,4.6
				c-0.6,1.6-1.4,3-2.6,4.1c-1.2,1.1-2.5,1.8-4,1.9c-1.1,0.1-2.1-0.3-2.9-1.2c-0.9-0.9-1.4-2-1.5-3.4
				C203.2,34.8,203.8,32.4,205.1,30.1z M210.5,35.7c0.7-1.5,0.9-2.9,0.8-4.2c-0.1-1.3-0.4-2.1-0.8-2.5c-0.8,0.6-1.5,1.7-2.2,3.3
				c-0.7,1.7-1,3.1-0.9,4.3c0.1,1.2,0.3,1.9,0.6,2.2C209,38.3,209.8,37.2,210.5,35.7z"/>
			<path class="st1" d="M219.4,25.4c0.7-0.1,1.3,0.3,2,1c0.6,0.7,1,1.5,1,2.2c0,0.4-0.2,1.7-0.6,4.1c-0.5,2.4-0.9,4.6-1.4,6.8
				c-0.2,0.8-0.6,1.2-1.3,1.3c-0.4,0-0.8-0.1-1.2-0.4c-0.4-0.3-0.6-0.7-0.6-1.2c0-0.5,0.1-1.8,0.4-4c0.3-2.1,0.5-3.9,0.6-5.4
				c0.1-1.5,0.3-2.6,0.4-3.3S219.1,25.4,219.4,25.4z M218.6,21.8c0-0.5,0.1-1.1,0.5-1.6c0.4-0.6,0.8-0.9,1.3-0.9
				c0.4,0,1,0.4,1.7,1.4c0.7,1,1.1,1.7,1.1,2.2c0,0.5-0.1,0.9-0.4,1.2c-0.3,0.3-0.6,0.4-0.9,0.5c-0.6,0.1-1.3-0.3-2.1-0.9
				C219.1,22.9,218.7,22.3,218.6,21.8z"/>
			<path class="st1" d="M235.8,32c-1.2,0.9-2.5,1.4-3.9,1.5c-1.4,0.1-2.5,0.1-3.4,0c-0.1,0.5-0.2,1.1-0.1,1.6
				c0.1,0.5,0.2,0.9,0.4,1.1c0.2,0.2,0.7,0.3,1.4,0.2c1.5-0.1,2.7-0.4,3.8-0.8c1-0.4,1.6-0.6,1.6-0.6c0.8-0.1,1.2,0.1,1.3,0.7
				c0.1,0.8-0.5,1.6-1.7,2.4c-1.2,0.8-2.6,1.3-4.3,1.5c-1.7,0.2-3-0.2-4.1-1.2c-1.1-0.9-1.7-2.1-1.9-3.6c-0.1-1.4,0.1-3,0.8-4.6
				c0.7-1.6,1.6-3,2.8-4.2c1.2-1.2,2.4-1.8,3.6-1.9c1.2-0.1,2.5,0.4,3.6,1.5c1.2,1.1,1.8,2.3,1.9,3.5C237.6,30.2,237,31.1,235.8,32z
				 M233.3,28.3c-0.4-0.3-0.9-0.5-1.2-0.4c-0.4,0-0.8,0.3-1.3,0.9c-0.5,0.6-1,1.3-1.4,2.2c0.2,0,0.4,0,0.8,0c2.7-0.3,4-0.9,3.9-1.8
				C234,28.9,233.8,28.6,233.3,28.3z"/>
			<path class="st1" d="M260.2,21.6c0.7-0.1,1.6,0.5,2.5,1.7c1,1.2,1.5,2.5,1.6,3.8c0.1,0.8-0.2,1.8-0.7,2.9
				c-0.6,1.1-1.3,2.2-2.2,3.3c-0.9,1.1-2,2-3.3,2.8s-2.5,1.2-3.7,1.4l-0.4,0c-0.7,5.3-1.4,7.9-1.9,8c-0.4,0-0.9-0.3-1.4-0.9
				c-0.5-0.6-0.8-1.2-0.9-1.6c0-0.5,0.1-1.9,0.5-4.2c1-7,1.4-12.3,1.1-15.8c-0.1-0.6,0.2-0.9,0.8-1c0.5,0,1.1,0.2,1.9,0.6
				c0.8,0.5,1.3,1.1,1.6,1.9C257.2,22.6,258.7,21.7,260.2,21.6z M258.8,30.9c1.2-1.5,1.8-2.8,1.7-3.8c-0.1-1-0.4-1.5-1-1.5
				c-0.8,0.1-1.7,0.6-2.5,1.7c-0.3,0.4-0.7,1-1.1,1.9c-0.4,0.8-0.7,1.7-0.9,2.8l-0.3,1.9C256.2,33.4,257.5,32.4,258.8,30.9z"/>
			<path class="st1" d="M267.5,25.9l-0.5-3.3c-0.1-1.1,0.2-1.7,0.9-1.7c0.4,0,0.8,0.1,1.2,0.3c0.4,0.3,0.7,0.7,1,1.3
				c0.6-0.7,1.3-1.2,2.1-1.6c0.8-0.4,1.4-0.7,2.1-0.7c1.4-0.1,2.2,0.1,2.3,0.8c0,0.4,0,0.6-0.1,0.8c-0.1,0.2-0.2,0.3-0.3,0.4
				c-0.1,0.1-0.2,0.2-0.3,0.3c-0.2,0.1-0.3,0.2-0.3,0.3c-0.4,0.3-0.7,0.6-0.9,0.7c-0.8,0.6-1.5,1.4-2.1,2.2c-0.6,0.8-0.9,2-1.1,3.4
				c-0.3,2.3-0.7,4-1.1,5.2c-0.4,1.2-0.9,1.8-1.5,1.8c-0.6,0.1-1.1-0.2-1.5-0.8c-0.4-0.6-0.6-1.1-0.6-1.6s0.1-1.3,0.4-2.4
				s0.5-2,0.5-2.8C267.6,27.7,267.6,26.9,267.5,25.9z"/>
			<path class="st1" d="M278.5,23.1c1.3-2.3,2.7-3.6,4.2-3.7c1.5-0.1,2.8,0.3,3.9,1.2c1.1,1,1.8,2.2,1.9,3.7s-0.1,3-0.6,4.6
				c-0.6,1.6-1.4,3-2.6,4.1c-1.2,1.1-2.5,1.8-4,1.9c-1.1,0.1-2.1-0.3-2.9-1.2c-0.9-0.9-1.4-2-1.5-3.4
				C276.7,27.8,277.2,25.4,278.5,23.1z M283.9,28.7c0.7-1.5,0.9-2.9,0.8-4.2c-0.1-1.3-0.4-2.1-0.8-2.5c-0.8,0.6-1.5,1.7-2.2,3.3
				c-0.7,1.7-1,3.1-0.9,4.3c0.1,1.2,0.3,1.9,0.6,2.2C282.4,31.3,283.2,30.2,283.9,28.7z"/>
			<path class="st1" d="M301.3,9.3c0.5,0,1.1,0.3,2,1.1c0.8,0.8,1.3,1.5,1.4,2.3c0,0.4-0.2,2-0.6,4.8c-0.4,2.8-0.7,4.5-0.8,5.1
				c-0.9,6.9-1.8,10.4-2.5,10.5c-0.4,0-0.9-0.2-1.5-0.6c-0.6-0.4-0.9-0.9-0.9-1.4c0-0.1,0-0.2,0-0.2c-1.8,1.8-3.1,2.7-4,2.8
				c-0.9,0.1-1.7-0.3-2.6-1.1c-0.9-0.8-1.4-1.6-1.4-2.4c-0.1-0.7,0-1.6,0.1-2.5c0.1-0.9,0.3-1.9,0.7-3c0.3-1.1,0.7-2.1,1.2-3
				c0.5-0.9,1.1-1.8,1.8-2.4c0.7-0.7,1.5-1,2.4-1.1c1.3-0.1,2.4,0.4,3.3,1.6c0.6-4.8,0.8-7.9,0.6-9.4C300.5,9.7,300.8,9.3,301.3,9.3
				z M294.5,29.8c0.5,0,1.3-0.5,2.4-1.5s1.9-2.1,2.3-3.5c0-0.2-0.1-0.5-0.1-1s-0.3-1-0.7-1.5c-0.4-0.4-0.7-0.6-1-0.6
				c-0.6,0.1-1.1,0.4-1.6,1.1c-0.5,0.7-0.8,1.5-1.1,2.4c-0.5,1.9-0.7,3.3-0.6,4.3c0,0.2,0,0.3,0.1,0.3
				C294.2,29.8,294.3,29.9,294.5,29.8z"/>
			<path class="st1" d="M315.8,17c0.1-0.5,0.4-0.8,0.9-0.8c0.5,0,1.1,0.3,1.8,1.1c0.7,0.7,1.1,1.4,1.1,2c0,0.2-0.3,1.7-0.9,4.5
				c-0.7,2.8-1.1,4.9-1.5,6.5c-0.2,0.9-0.6,1.3-1.3,1.4c-0.4,0-0.7-0.1-1-0.3c-0.3-0.3-0.5-0.7-0.5-1.3c-0.1-0.6,0-1.5,0.1-2.6
				c-1.7,3.1-3.2,4.7-4.4,4.8c-0.6,0.1-1.4-0.3-2.4-1c-1-0.7-1.5-1.5-1.6-2.2c-0.2-1.9,0.1-4.3,0.9-7.4c0.8-3,1.7-4.6,2.6-4.7
				c0.6-0.1,1.1,0.2,1.6,0.6c0.5,0.5,0.8,1,0.8,1.6c0,0.2-0.2,0.9-0.5,2c-1.2,3.4-1.7,5.7-1.6,7.1c0,0.1,0.1,0.2,0.2,0.2
				c0.3,0,0.8-0.5,1.5-1.6c0.7-1,1.5-2.4,2.4-4.3C314.8,20.7,315.4,18.8,315.8,17z"/>
			<path class="st1" d="M320.8,26.4c-0.1-1.4,0.2-2.9,0.9-4.7c0.7-1.7,1.7-3.3,3-4.6s2.6-2,4-2.2c0.7-0.1,1.4,0.3,2.3,1.1
				c0.8,0.8,1.3,1.6,1.3,2.3c0,0.5-0.2,0.8-0.6,0.8c-0.2,0-0.6-0.1-1-0.2c-0.4-0.2-0.9-0.2-1.3-0.2c-0.4,0-1,0.5-1.7,1.3
				c-0.7,0.8-1.4,1.8-1.9,2.9s-0.8,1.9-0.7,2.5c0.1,0.6,0.2,1,0.4,1.1c0.2,0.2,0.8,0.2,1.7,0.1c0.9-0.1,1.7-0.2,2.4-0.5
				c0.7-0.2,1.2-0.4,1.5-0.6c0.3-0.2,0.6-0.3,0.9-0.3c0.5-0.1,0.8,0.2,0.9,0.6c0.1,0.9-0.6,1.8-2,2.9c-1.4,1-2.9,1.6-4.4,1.8
				c-1,0.1-2.1-0.3-3.4-1.3C321.6,28.3,320.8,27.4,320.8,26.4z"/>
			<path class="st1" d="M341.7,19.6c-0.2,1-0.5,2.2-0.8,3.7c-0.3,1.5-0.5,2.3-0.4,2.3c0,0.1,0.2,0.1,0.5,0.1c0.3,0,1.1-0.3,2.3-0.9
				c1.2-0.6,1.9-0.8,2.1-0.9c0.5,0,0.8,0.3,0.8,0.9s-0.5,1.5-1.7,2.6c-1.2,1.1-2.6,1.7-4,1.8c-0.6,0.1-1.4-0.2-2.3-0.8
				c-0.9-0.6-1.4-1.3-1.5-2c-0.1-0.6,0.1-1.9,0.5-3.8c0.4-2,0.7-3.3,0.9-4c-0.7,0.3-1.3,0.5-1.7,0.5c-0.4,0-0.8-0.2-1.3-0.7
				c-0.5-0.5-0.7-1-0.8-1.5c-0.1-0.6,1.4-1.3,4.4-2c0.2-1.9,0.2-3.5,0.1-4.8c-0.1-0.6,0.2-0.9,0.8-1c0.5,0,1.2,0.2,2.1,0.7
				c0.9,0.5,1.3,1.1,1.4,1.7c0.1,0.6,0,1.5-0.1,2.6c0.9-0.1,1.7-0.2,2.1-0.3c1.5-0.1,2.2,0.1,2.3,0.8c0,0.4-0.4,0.8-1.2,1.2
				c-0.8,0.4-2.1,0.8-3.8,1.4C342,17.8,341.9,18.6,341.7,19.6z"/>
			<path class="st1" d="M359.5,20.3c-1.2,0.9-2.5,1.4-3.9,1.5c-1.4,0.1-2.5,0.1-3.4,0c-0.1,0.5-0.2,1.1-0.1,1.6
				c0.1,0.5,0.2,0.9,0.4,1.1c0.2,0.2,0.7,0.3,1.4,0.2c1.5-0.1,2.7-0.4,3.8-0.8c1-0.4,1.6-0.6,1.6-0.6c0.8-0.1,1.2,0.1,1.3,0.7
				c0.1,0.8-0.5,1.6-1.7,2.4c-1.2,0.8-2.6,1.3-4.3,1.5c-1.7,0.2-3-0.2-4.1-1.2c-1.1-0.9-1.7-2.1-1.9-3.6c-0.1-1.4,0.1-3,0.8-4.6
				c0.7-1.6,1.6-3,2.8-4.2c1.2-1.2,2.4-1.8,3.6-1.9c1.2-0.1,2.5,0.4,3.6,1.5c1.2,1.1,1.8,2.3,1.9,3.5
				C361.3,18.4,360.7,19.4,359.5,20.3z M357,16.5c-0.4-0.3-0.9-0.5-1.2-0.4c-0.4,0-0.8,0.3-1.3,0.9c-0.5,0.6-1,1.3-1.4,2.2
				c0.2,0,0.4,0,0.8,0c2.7-0.3,4-0.9,3.9-1.8C357.7,17.1,357.5,16.9,357,16.5z"/>
			<path class="st1" d="M372.7,10.8c1-0.1,2,0.3,2.8,1.1c0.9,0.8,1.3,1.8,1.4,2.8c0.2,1.7,0.1,3.4-0.3,5.3c-0.4,1.9-0.8,3.3-1.4,4.4
				c-0.5,1-1.1,1.6-1.8,1.7c-0.7,0.1-1-0.4-1.1-1.3c-0.1-0.7,0.1-2.2,0.6-4.4c0.3-1.8,0.4-3.1,0.4-3.9c-0.1-0.8-0.2-1.1-0.4-1.1
				c-0.3,0-0.5,0.2-0.7,0.5c-0.2,0.3-0.4,0.5-0.5,0.7c-0.1,0.2-0.3,0.5-0.5,0.8c-0.2,0.3-0.3,0.6-0.5,0.9c-0.1,0.3-0.3,0.6-0.5,1
				c-0.2,0.4-0.3,0.7-0.5,1c-0.1,0.3-0.3,0.6-0.4,1c-1.5,3.6-2.8,5.4-3.8,5.5c-0.4,0-1-0.3-1.7-0.9c-0.7-0.7-1.1-1.2-1.1-1.5
				c0-0.2,0.1-0.7,0.3-1.4c0.2-0.7,0.4-1.3,0.5-1.7c0.1-0.4,0.2-0.8,0.2-1.3s0.1-0.9,0.1-1.4c0-0.5,0-0.9,0-1.2c0-0.3,0-0.7,0-1.3
				c-0.1-2.6,0-4,0.1-4.3s0.2-0.4,0.4-0.5c0.7-0.1,1.5,0.2,2.2,0.7c0.7,0.6,1.1,1.1,1.2,1.6c0.1,1.2,0,3-0.4,5.3
				c1.1-2.4,2.1-4.3,3-5.8C371.2,11.7,372,10.9,372.7,10.8z"/>
		</g>
		<path class="st1" d="M222.7,62.4c11.8-2,23.8-3.3,35.7-4.8c12.8-1.6,25.6-3.4,38.5-4.7c14.2-1.4,28.4-2.6,42.6-3.9
			c7.2-0.6,14.5-1.3,21.8-1.7c2.4-0.2,4.9-0.3,7.3-0.4c0.8,0,1.6,0,2.5,0h0.5c0.1,0,0.2,0,0.3,0c0.3,0,0,0.1,0,0
			c0,0.1-0.1-0.2-0.1-0.3s0.7-0.6,0.5-0.5s-0.3,0.1,0,0c-0.1,0-0.2,0.1-0.4,0.1c-1.5,0.3-3.1,0.5-4.6,0.7c-6,0.9-12.1,1.8-18.1,2.6
			c-12.4,1.7-24.8,3.4-37.2,5.2l-8.5,1.3c-0.4,0.1-1.6,0.3-1.7,0.9s0.8,0.6,1.2,0.5c12.6-1.9,25.2-3.6,37.8-5.4
			c6.3-0.9,12.7-1.7,19-2.7c3-0.4,6-0.9,8.9-1.3c1.6-0.1,3.2-0.5,4.8-1c0.4-0.2,1.4-0.6,1.3-1.2s-0.7-0.5-1.1-0.5
			c-1.6-0.1-3.2-0.1-4.7,0c-6.3,0.2-12.7,0.8-19,1.3c-16,1.3-31.9,2.9-47.9,4.3c-12,1.1-23.9,2.7-35.8,4.2
			c-13.6,1.7-27.3,3.4-40.9,5.4l-2,0.3c-0.4,0.1-1.6,0.3-1.7,0.9S222.3,62.4,222.7,62.4L222.7,62.4z"/>
	</g>
</g>
</svg>
