<svg xmlns="http://www.w3.org/2000/svg" width="29.842" height="29.842" viewBox="0 0 29.842 29.842">
  <g id="Group_115" data-name="Group 115" transform="translate(-465.558 -2556.258)">
    <path id="Circuit_67" data-name="Circuit 67" d="M478.747,2574.361a.043.043,0,0,1,.02.009c1.841-1.058,3.679-2.127,5.54-3.2-1.861-1.064-3.7-2.123-5.56-3.186Z" fill="#fff" fill-rule="evenodd"/>
    <path id="Circuit_68" data-name="Circuit 68" d="M480.47,2556.258a14.921,14.921,0,1,0,14.93,14.9A14.9,14.9,0,0,0,480.47,2556.258Zm8.184,17.8c-.009.028-.013.052-.019.073a3.815,3.815,0,0,1-.117.515,2.659,2.659,0,0,1-2.012,1.743c-.131.033-.268.047-.41.068H474.861a.565.565,0,0,1-.063-.014,5.465,5.465,0,0,1-.6-.122,2.615,2.615,0,0,1-1.827-1.93c-.027-.108-.04-.218-.063-.333V2568.3a.3.3,0,0,0,.016-.073,2.394,2.394,0,0,1,.3-.937,2.7,2.7,0,0,1,2.437-1.382c3.61-.012,7.22,0,10.832,0a2.841,2.841,0,0,1,.755.1,2.613,2.613,0,0,1,1.937,1.961c.029.107.043.22.064.328Z" fill="#fff" fill-rule="evenodd"/>
  </g>
</svg>
